<svg height="512pt" viewBox="-16 0 512 512" width="512pt" xmlns="http://www.w3.org/2000/svg"><path d="m435 158.027344c-8.289062 0-15-6.710938-15-15v-38.027344c0-8.277344-6.722656-15-15-15-8.289062 0-15-6.710938-15-15s6.710938-15 15-15c24.8125 0 45 20.1875 45 45v38.027344c0 8.289062-6.710938 15-15 15zm0 0" fill="#8ebac5"/><path d="m405 451c-24.8125 0-45-20.1875-45-45v-60c0-24.8125-20.1875-45-45-45-8.289062 0-15-6.710938-15-15s6.710938-15 15-15c41.351562 0 75 33.648438 75 75v60c0 8.277344 6.722656 15 15 15s15-6.722656 15-15v-181c0-8.289062 6.710938-15 15-15s15 6.710938 15 15v181c0 24.8125-20.1875 45-45 45zm0 0" fill="#8ebac5"/><path d="m330 225v272h-270v-272c0-8.402344 6.597656-15 15-15h240c8.402344 0 15 6.597656 15 15zm0 0" fill="#cc2e43"/><path d="m330 225v272h-135v-287h120c8.402344 0 15 6.597656 15 15zm0 0" fill="#ae2538"/><path d="m315 0h-240c-24.902344 0-45 20.097656-45 45v150c0 24.898438 20.097656 45 45 45h240c24.902344 0 45-20.101562 45-45v-150c0-24.902344-20.097656-45-45-45zm0 0" fill="#e63950"/><path d="m465 240h-60c-8.289062 0-15-6.710938-15-15v-30c0-41.351562 33.648438-75 75-75 8.289062 0 15 6.710938 15 15v90c0 8.289062-6.710938 15-15 15zm0 0" fill="#cc2e43"/><path d="m207.300781 277.597656c-2.699219-4.199218-7.5-6-12.300781-6s-9.601562 1.800782-12.300781 6c-9.898438 14.101563-32.699219 49.203125-32.699219 68.402344 0 24.898438 20.097656 45 45 45s45-20.101562 45-45c0-19.199219-22.800781-54.300781-32.699219-68.402344zm0 0" fill="#fdbf00"/><path d="m390 497c0 8.398438-6.597656 15-15 15h-360c-8.402344 0-15-6.601562-15-15 0-8.402344 6.597656-15 15-15h360c8.402344 0 15 6.597656 15 15zm0 0" fill="#5a5a5a"/><path d="m270 436c0 8.398438-6.597656 15-15 15h-120c-8.402344 0-15-6.601562-15-15 0-8.402344 6.597656-15 15-15h120c8.402344 0 15 6.597656 15 15zm0 0" fill="#5a5a5a"/><path d="m360 45v150c0 24.898438-20.097656 45-45 45h-120v-240h120c24.902344 0 45 20.097656 45 45zm0 0" fill="#cc2e43"/><path d="m195 391v-119.402344c4.800781 0 9.601562 1.800782 12.300781 6 9.898438 14.101563 32.699219 49.203125 32.699219 68.402344 0 24.898438-20.097656 45-45 45zm0 0" fill="#ff9f00"/><path d="m390 497c0 8.398438-6.597656 15-15 15h-180v-30h180c8.402344 0 15 6.597656 15 15zm0 0" fill="#444"/><path d="m270 436c0 8.398438-6.597656 15-15 15h-60v-30h60c8.402344 0 15 6.597656 15 15zm0 0" fill="#444"/><path d="m285 60h-180c-8.402344 0-15 6.597656-15 15v90c0 8.398438 6.597656 15 15 15h180c8.402344 0 15-6.601562 15-15v-90c0-8.402344-6.597656-15-15-15zm0 0" fill="#deecf1"/><path d="m285 180h-90v-120h90c8.402344 0 15 6.597656 15 15v90c0 8.398438-6.597656 15-15 15zm0 0" fill="#c6e2e7"/></svg>