<?xml version="1.0" encoding="iso-8859-1"?>
<!-- Generator: Adobe Illustrator 19.0.0, SVG Export Plug-In . SVG Version: 6.00 Build 0)  -->
<svg version="1.1" id="Capa_1" xmlns="http://www.w3.org/2000/svg" xmlns:xlink="http://www.w3.org/1999/xlink" x="0px" y="0px"
	 viewBox="0 0 512.003 512.003" style="enable-background:new 0 0 512.003 512.003;" xml:space="preserve">
<path style="fill:#FD003A;" d="M216.493,379.527l-42.299-42.301l-42.601-42.599c-5.7-6-15.298-6-20.999,0l-97.32,97.974
	c-17.699,17.401-17.699,46.199,0,63.6l21,21.301h0.3l21,21c17.401,17.699,46.199,17.699,63.6,0l97.318-97.977
	C222.494,394.825,222.494,385.227,216.493,379.527z"/>
<path style="fill:#E50027;" d="M216.493,379.527c6,5.7,6,15.298,0,20.999l-97.318,97.977c-17.401,17.699-46.199,17.699-63.6,0
	l-21-21l139.619-140.276L216.493,379.527z"/>
<g>
	<path style="fill:#A8AFF1;" d="M275.294,193.226l-38.948-44.103c10.499-40.801-1.8-85.201-32.701-115.201
		c-32.999-32.1-82.2-42.599-125.7-26.4c-10.199,3.9-12.9,17.401-5.099,24.901l62.401,60.3l-6.601,35.4l-35.099,7.5l-62.401-60.3
		c-8.099-7.8-21.299-4.2-24.6,6c-15,43.499-3.3,92.399,29.702,124.799c30.899,29.7,75.599,40.8,116.4,29.101l16.746,22.204
		c6,5.7,15.3,5.7,21.301-0.3l15.3-15.601l10.8,10.501c5.7,5.999,15.3,5.999,21,0l37.5-37.5
		C281.294,208.827,281.294,199.226,275.294,193.226z"/>
	<path style="fill:#A8AFF1;" d="M421.995,332.001c-2.1,0-4.2,0-6.301,0.3l-97.5-97.375c-6-5.7-15.3-5.7-21,0.3l-33.9,33.898
		l-4.2,4.2c-5.999,5.7-5.999,15.3,0,21l10.501,10.8l-14.399,14.101c-6,6-6,15.599,0,21.599l76.8,77.576v4.801
		c0.599,49.199,40.8,88.799,89.7,88.799h1.5c22.2-0.3,42.599-8.699,58.2-22.5c18.9-16.8,30.899-41.699,30.601-69
		C511.394,371.601,470.893,332.001,421.995,332.001z M419.594,454.402c-16.5,0-30-13.5-30-30c0-7.5,2.699-14.399,7.2-19.501
		c5.7-6.599,13.801-10.499,22.8-10.499c16.5,0,30,13.2,30,30c0,9.3-4.2,17.401-10.8,22.8
		C433.693,451.701,426.794,454.402,419.594,454.402z"/>
</g>
<g>
	<path style="fill:#C5C9F7;" d="M128.645,128.122l113.349,119.704l-4.2,4.2c-5.7,5.999-15.3,5.999-21,0l-10.8-10.501l-15.3,15.601
		c-6,6-15.3,6-21.301,0.3l-16.746-22.204c-40.801,11.699-85.501,0.599-116.4-29.101c-33.001-32.4-44.702-81.3-29.702-124.799
		c3.301-10.201,16.501-13.801,24.6-6l62.401,60.3L128.645,128.122z"/>
	<path style="fill:#C5C9F7;" d="M481.394,489.501c-15.601,13.801-36,22.2-58.2,22.5h-1.5c-48.9,0-89.101-39.6-89.7-88.799v-4.801
		l-76.8-77.576c-6-6-6-15.599,0-21.599l14.399-14.101l-10.501-10.8c-5.999-5.7-5.999-15.3,0-21l4.2-4.2l133.5,135.776
		c-4.501,5.101-7.2,12.001-7.2,19.501c0,16.5,13.5,30,30,30c7.2,0,14.099-2.701,19.2-7.2L481.394,489.501z"/>
</g>
<path style="fill:#E1E4FB;" d="M507.481,26.02l-10.499-10.501l-10.801-10.8c-3.9-4.2-9.6-5.4-15-3.9l-99.6,30.901
	c-4.499,1.5-8.099,5.099-9.598,9.6l-23.101,68.399L216.794,231.026c-6,5.7-6,15.3,0,21l21.301,21.299l20.999,21c5.7,6,15.3,6,21,0
	l122.388-121.006l68.399-23.101c4.501-1.5,8.101-5.099,9.6-9.598l30.901-99.6C512.881,35.621,511.682,29.921,507.481,26.02z"/>
<path style="fill:#C5C9F7;" d="M511.381,41.02l-30.901,99.6c-1.5,4.499-5.099,8.099-9.6,9.598l-68.399,23.101L280.093,294.326
	c-5.7,6-15.3,6-21,0l-20.999-21L496.982,15.519l10.499,10.501C511.682,29.921,512.881,35.621,511.381,41.02z"/>
<path style="fill:#FD003A;" d="M301.394,294.626l-84.901-84.901c-7.5-7.5-16.5-4.799-21.299,0l-42.001,42.599c-6,5.7-6,15.3,0,21
	l42.299,42.301l42.301,42.299c2.699,2.999,6.599,4.501,10.499,4.501s7.8-1.501,10.501-4.501l42.599-42.001
	C307.394,309.926,307.394,300.326,301.394,294.626z"/>
<g>
	<path style="fill:#E50027;" d="M301.394,315.925l-42.599,42.001c-2.701,2.999-6.601,4.501-10.501,4.501s-7.8-1.501-10.499-4.501
		l-42.301-42.299l63.6-63.301l42.301,42.301C307.394,300.326,307.394,309.926,301.394,315.925z"/>
	<path style="fill:#E50027;" d="M153.194,252.325c-2.999,2.701-4.501,6.301-4.501,10.501c0,15-12.299,27.299-27.599,27.299
		c-2.701,0-5.4,0.901-7.8,2.1l105.601,105.601c1.199-2.401,2.1-5.099,2.1-7.8c0-15.3,12.299-27.599,27.299-27.599
		c4.2,0,7.8-1.501,10.501-4.501L153.194,252.325z"/>
</g>
<path style="fill:#C1001F;" d="M205.994,305.125l52.8,52.8c-2.701,2.999-6.301,4.501-10.501,4.501
	c-15,0-27.299,12.299-27.299,27.599c0,2.701-0.901,5.4-2.1,7.8l-52.8-52.8L205.994,305.125z"/>
<g>
</g>
<g>
</g>
<g>
</g>
<g>
</g>
<g>
</g>
<g>
</g>
<g>
</g>
<g>
</g>
<g>
</g>
<g>
</g>
<g>
</g>
<g>
</g>
<g>
</g>
<g>
</g>
<g>
</g>
</svg>
